<?xml version="1.0" encoding="UTF-8"?>
<svg xmlns="http://www.w3.org/2000/svg" viewBox="0 0 32 32" width="512" height="512"><g id="Ikon"><path d="M27,8H11a2.00591,2.00591,0,0,0-2,2V26a2.00591,2.00591,0,0,0,2,2H22V23a2.00591,2.00591,0,0,1,2-2h5V10A2.00591,2.00591,0,0,0,27,8Z" style="fill:#bddbff"/></g><g id="Line"><path d="M27,7H25.74744A2.88346,2.88346,0,0,0,23.376,5.06836L7.30518,3.09521a2.91381,2.91381,0,0,0-3.23682,2.5293L2.09521,21.69482a2.909,2.909,0,0,0,2.5293,3.23682L8,25.34613V26a3.00328,3.00328,0,0,0,3,3H23a.99928.99928,0,0,0,.707-.293l6-6A1.00012,1.00012,0,0,0,30,22V10A3.00328,3.00328,0,0,0,27,7ZM8,10V23.33075l-3.13135-.38446a.906.906,0,0,1-.78808-1.00781L6.05371,5.86865a.90632.90632,0,0,1,.89746-.79492.841.841,0,0,1,.11035.00684L22.6944,7H11A3.00328,3.00328,0,0,0,8,10ZM23,26.58594V23a1.001,1.001,0,0,1,1-1h3.58594ZM28,20H24a2.99442,2.99442,0,0,0-.62256.06683l1.652-5.17474a4.29669,4.29669,0,0,0-.12647-3.02344,3.5162,3.5162,0,0,0-2.15918-1.99609,3.91449,3.91449,0,0,0-4.771,2.7666l-2.34619,7.34766a2.46567,2.46567,0,0,0,1.46679,3.13769,2.46458,2.46458,0,0,0,3.01416-1.707l2.3462-7.34863a.99988.99988,0,0,0-1.90528-.60742l-2.34619,7.34863c-.08166.22656-.2486.45239-.501.40918-.22876-.11182-.23394-.39246-.16943-.624l2.34619-7.34863a1.92757,1.92757,0,0,1,2.25733-1.46875,1.94729,1.94729,0,0,1,.98877,2.50586l-2.34571,7.34863c-.5,1.70063-2.29516,3.08289-4.01465,2.52735A3.38429,3.38429,0,0,1,14.95618,19.773l2.3457-7.34863a.99988.99988,0,1,0-1.90527-.60743L13.0509,19.16553A5.37108,5.37108,0,0,0,16.1554,26.064,4.91729,4.91729,0,0,0,21,24.87036V27H11a1.0013,1.0013,0,0,1-1-1V10a1.0013,1.0013,0,0,1,1-1H27a1.001,1.001,0,0,1,1,1Z" style="fill:#3d9ae2"/></g></svg>
